<svg width="192" height="35" viewBox="0 0 192 35" fill="none" xmlns="http://www.w3.org/2000/svg">
<g id="Medicarians Vegas 2027 &#226;&#128;&#148; Website Update">
<g id="Body">
<g id="Header">
<g id="Container">
<g id="Logo" clip-path="url(#clip0_11_1497)">
<g id="Group">
<path id="Vector" d="M37.0133 27.3138V7.44678H48.08V11.9149H41.8933V15H47.8933V19.4681H41.8933V22.8723H48.08V27.3404H37.0133V27.3138Z" fill="white" style="fill:white;fill-opacity:1;"/>
<path id="Vector_2" d="M49.8933 27.3138V7.44678H56.6933C59.1733 7.44678 61.1466 7.87231 62.5333 8.64359C65.36 10.2659 67.1466 13.3244 67.1466 17.367C67.1466 23.9361 63.2533 27.3138 57.04 27.3138H49.8933ZM57.28 22.8723C60.2133 22.8723 62.0533 21.0372 62.0533 17.4202C62.0533 13.8829 60.24 11.9149 57.3066 11.9149H54.9866V22.8723H57.28Z" fill="white" style="fill:white;fill-opacity:1;"/>
<path id="Vector_3" d="M68.88 27.3138V7.44678H73.9733V27.3404H68.88V27.3138Z" fill="white" style="fill:white;fill-opacity:1;"/>
<path id="Vector_4" d="M90.9333 15.0002C90.08 12.8194 88.1867 11.5428 86.1067 11.5428C82.9333 11.5428 80.7733 14.2556 80.7733 17.3407C80.7733 20.5587 82.9867 23.2449 86.1333 23.2449C88.16 23.2449 89.8667 22.1279 90.9333 19.8939H96.2667C95.04 24.6811 90.9067 27.713 86.1867 27.713C83.4133 27.713 80.8 26.7556 78.7467 24.7343C76.5867 22.6332 75.68 20.1066 75.68 17.1013C75.68 11.8353 80.24 7.07471 85.9467 7.07471C88.6933 7.07471 90.9067 7.81939 92.9067 9.52152C94.8 11.1439 95.92 12.9524 96.2667 15.0002H90.9333Z" fill="white" style="fill:white;fill-opacity:1;"/>
<path id="Vector_5" d="M109.627 27.3138L108.667 24.4415H101.733L100.693 27.3138H95.2L103.2 7.44678H107.227L115.147 27.3404H109.627V27.3138ZM105.253 13.6436L105.173 13.617L103.12 20.4255H107.307L105.253 13.6436Z" fill="white" style="fill:white;fill-opacity:1;"/>
<path id="Vector_6" d="M125.653 27.3138L121.04 20.8776H120.987V27.3138H116.107V7.44678H122.64C124.72 7.44678 126.293 7.71273 127.36 8.16486C129.52 9.12231 131.013 11.4627 131.013 14.2819C131.013 17.4202 129.12 20 126.053 20.5319L131.467 27.3138H125.653ZM122.88 17.4468C124.907 17.4468 126.133 16.5159 126.133 14.601C126.133 12.8723 124.827 11.9149 122.933 11.9149H120.987V17.4468H122.88Z" fill="white" style="fill:white;fill-opacity:1;"/>
<path id="Vector_7" d="M132.64 27.3138V7.44678H137.733V27.3404H132.64V27.3138Z" fill="white" style="fill:white;fill-opacity:1;"/>
<path id="Vector_8" d="M153.12 27.314L152.16 24.4417H145.227L144.187 27.314H138.72L146.72 7.42041H150.747L158.667 27.314H153.12ZM148.747 13.6438L148.667 13.6172L146.613 20.4257H150.8L148.747 13.6438Z" fill="white" style="fill:white;fill-opacity:1;"/>
<path id="Vector_9" d="M172 27.3138L164.347 15.1595L164.48 27.3138H159.6V7.44678H164L171.76 20.0266L171.547 7.44678H176.427V27.3404H172V27.3138Z" fill="white" style="fill:white;fill-opacity:1;"/>
<path id="Vector_10" d="M186.8 13.2449C186.587 11.8087 186 11.3034 184.987 11.3034C184.053 11.3034 183.227 11.9683 183.227 12.8726C183.227 14.0428 184.293 14.6013 186.48 15.5322C190.88 17.4205 191.973 18.9896 191.973 21.596C191.973 25.4524 189.333 27.6864 185.013 27.6864C180.667 27.6864 177.813 25.4258 177.813 21.1439V20.7449H182.88C182.907 22.3939 183.707 23.4577 184.987 23.4577C186.027 23.4577 186.907 22.6332 186.907 21.5428C186.907 19.947 184.693 19.2556 182.88 18.5375C179.627 17.2077 178.133 15.5056 178.133 12.9258C178.133 9.54811 181.413 7.07471 185.093 7.07471C186.427 7.07471 187.573 7.36726 188.613 7.89918C190.747 8.9896 191.76 10.5853 191.787 13.2449H186.8Z" fill="white" style="fill:white;fill-opacity:1;"/>
<g id="Group_2">
<g id="Group_3">
<path id="Vector_11" d="M33.7333 0C33.7333 0 18.5333 11.2766 16.7733 12.5798C11.8667 8.93617 0 0.132979 0 0.132979V34.9734L8.48 28.6702V16.25L17.52 22.9521L33.7333 10.9309C33.7333 10.9574 33.7333 0 33.7333 0Z" fill="white" style="fill:white;fill-opacity:1;"/>
</g>
<g id="Group_4">
<path id="Vector_12" d="M33.7333 24.0424L26.7733 18.8828L19.3867 24.3349C24.24 27.9254 33.7333 34.9732 33.7333 34.9732V24.0424Z" fill="white" style="fill:white;fill-opacity:1;"/>
</g>
</g>
</g>
</g>
</g>
</g>
</g>
</g>
<defs>
<clipPath id="clip0_11_1497">
<rect width="192" height="35" fill="white" style="fill:white;fill-opacity:1;"/>
</clipPath>
</defs>
</svg>
